<svg xmlns="http://www.w3.org/2000/svg" width="126.067" height="122" viewBox="0 0 126.067 122">
  <g id="icon_skill" transform="translate(-1.563 -3.125)">
    <path id="Path_75" data-name="Path 75" d="M122.346,101.414a10.167,10.167,0,1,0-13.834,0,10.2,10.2,0,0,0-3.249,2.847,10.2,10.2,0,0,0-3.249-2.847A10.249,10.249,0,0,0,97.129,83.9V67.285H101.2a2.041,2.041,0,0,0,2.034-2.051v-8.2a2.04,2.04,0,0,0-2.034-2.05H99.163V48.827a2.054,2.054,0,0,0-.6-1.449l-4.067-4.1-2.876,2.9,3.472,3.5v5.3H86.963V38.574A10.223,10.223,0,0,0,76.8,28.32H73.665a12.2,12.2,0,1,0-18.138,0H43.07l-11.6-11.7a2.018,2.018,0,0,0-2.875,0l-6.1,6.153a2.06,2.06,0,0,0,0,2.9L38.758,42.075a2.014,2.014,0,0,0,1.438.6H50.363v12.3H34.1v-5.3l3.471-3.5-2.876-2.9-4.067,4.1a2.053,2.053,0,0,0-.595,1.449V54.98H28a2.039,2.039,0,0,0-2.033,2.05v8.2A2.04,2.04,0,0,0,28,67.285h4.067V83.9a10.249,10.249,0,0,0-4.884,17.515,10.2,10.2,0,0,0-3.249,2.847,10.2,10.2,0,0,0-3.249-2.847,10.167,10.167,0,1,0-13.834,0,10.231,10.231,0,0,0-5.282,8.937v12.3A2.04,2.04,0,0,0,3.6,124.707h122a2.041,2.041,0,0,0,2.034-2.051v-12.3A10.232,10.232,0,0,0,122.346,101.414ZM115.43,87.793a6.153,6.153,0,1,1-6.1,6.152A6.133,6.133,0,0,1,115.43,87.793ZM101.2,93.944a6.1,6.1,0,1,1-6.1-6.152A6.134,6.134,0,0,1,101.2,93.944ZM56.462,20.117a8.134,8.134,0,1,1,8.133,8.2A8.177,8.177,0,0,1,56.462,20.117ZM52.4,38.574H41.038L26.8,24.218l3.226-3.252L40.792,31.821a2.018,2.018,0,0,0,1.438.6H76.8a6.136,6.136,0,0,1,6.1,6.153V54.98H76.8V40.624H72.729V54.98H54.43V40.624A2.04,2.04,0,0,0,52.4,38.574ZM30.03,59.082H99.163v4.1H30.03Zm63.033,8.2V83.9a10.249,10.249,0,0,0-4.884,17.515,10.2,10.2,0,0,0-3.249,2.847,10.2,10.2,0,0,0-3.249-2.847,10.167,10.167,0,1,0-13.834,0,10.2,10.2,0,0,0-3.249,2.847,10.2,10.2,0,0,0-3.249-2.847,10.167,10.167,0,1,0-13.834,0,10.2,10.2,0,0,0-3.249,2.847,10.2,10.2,0,0,0-3.249-2.847A10.249,10.249,0,0,0,36.129,83.9V67.285Zm-24.4,26.659a6.1,6.1,0,1,1,6.1,6.153A6.134,6.134,0,0,1,68.662,93.944Zm-20.333,0a6.1,6.1,0,1,1,6.1,6.153A6.134,6.134,0,0,1,48.329,93.944ZM34.1,87.793A6.153,6.153,0,1,1,28,93.944,6.133,6.133,0,0,1,34.1,87.793Zm-20.333,0a6.153,6.153,0,1,1-6.1,6.152A6.133,6.133,0,0,1,13.763,87.793ZM5.63,110.35a6.133,6.133,0,0,1,6.1-6.152H15.8a6.134,6.134,0,0,1,6.1,6.152V120.6H5.63Zm20.333,0a6.133,6.133,0,0,1,6.1-6.152h4.067a6.134,6.134,0,0,1,6.1,6.152V120.6H25.963Zm20.333,0a6.133,6.133,0,0,1,6.1-6.152h4.067a6.134,6.134,0,0,1,6.1,6.152V120.6H46.3Zm20.333,0a6.133,6.133,0,0,1,6.1-6.152H76.8a6.134,6.134,0,0,1,6.1,6.152V120.6H66.63Zm20.333,0a6.133,6.133,0,0,1,6.1-6.152h4.067a6.134,6.134,0,0,1,6.1,6.152V120.6H86.963Zm36.6,10.255H107.3V110.35a6.133,6.133,0,0,1,6.1-6.152h4.067a6.134,6.134,0,0,1,6.1,6.152Z" transform="translate(0 0.418)" fill="#003adc"/>
    <path id="Path_76" data-name="Path 76" d="M75.186,33.632a1.679,1.679,0,0,0,.651.13,1.7,1.7,0,0,0,1.2-.5l6.309-6.309h7.806a8.52,8.52,0,0,0,8.509-8.511V11.635a8.52,8.52,0,0,0-8.509-8.51H74.136a8.52,8.52,0,0,0-8.511,8.51v6.808a8.52,8.52,0,0,0,8.511,8.511v5.105A1.7,1.7,0,0,0,75.186,33.632ZM69.029,18.443V11.635a5.112,5.112,0,0,1,5.107-5.105h17.02a5.112,5.112,0,0,1,5.105,5.105v6.808a5.112,5.112,0,0,1-5.105,5.107H82.645a1.693,1.693,0,0,0-1.2.5l-3.9,3.9v-2.7a1.7,1.7,0,0,0-1.7-1.7h-1.7A5.112,5.112,0,0,1,69.029,18.443Z" transform="translate(26.262)" fill="#003adc"/>
    <rect id="Rectangle_31" data-name="Rectangle 31" width="20.424" height="3.404" transform="translate(98.695 9.933)" fill="#003adc"/>
    <rect id="Rectangle_32" data-name="Rectangle 32" width="3.404" height="3.404" transform="translate(97.648 16.741)" fill="#003adc"/>
    <rect id="Rectangle_33" data-name="Rectangle 33" width="3.404" height="3.404" transform="translate(108.907 16.741)" fill="#003adc"/>
    <rect id="Rectangle_34" data-name="Rectangle 34" width="3.404" height="3.404" transform="translate(115.715 16.741)" fill="#003adc"/>
    <rect id="Rectangle_35" data-name="Rectangle 35" width="3.404" height="3.404" transform="translate(62.894 37.886)" fill="#003adc"/>
  </g>
</svg>
