<svg xmlns="http://www.w3.org/2000/svg" width="111.475" height="111.475" viewBox="0 0 111.475 111.475">
  <g id="icon_modern" transform="translate(-3.125 -3.125)">
    <path id="Path_70" data-name="Path 70" d="M4.984,72.249h7.432v39.015a1.856,1.856,0,0,0,1.857,1.859H25.42a1.857,1.857,0,0,0,1.859-1.859V92.869l3.753,18.761a1.857,1.857,0,0,0,1.82,1.492H44a1.857,1.857,0,0,0,1.832-2.174L38.426,68.373V50.723L46.4,58.7a1.852,1.852,0,0,0,1.314.543H68.152a1.855,1.855,0,0,0,1.857-1.857V48.865L86.187,32.689l-2.628-2.628L67.383,46.238H54.057L43.774,35.955a9.234,9.234,0,0,0-6.57-2.723h-2.7a13.006,13.006,0,1,0-18.169,0h-.206A13.023,13.023,0,0,0,3.125,46.238V70.39A1.856,1.856,0,0,0,4.984,72.249ZM16.131,23.943a9.29,9.29,0,1,1,9.289,9.289A9.3,9.3,0,0,1,16.131,23.943ZM6.841,46.238a9.3,9.3,0,0,1,9.29-9.29H37.2a5.537,5.537,0,0,1,3.943,1.634L51.975,49.409a1.848,1.848,0,0,0,1.314.545h13v5.573H48.484l-10.6-10.6a1.857,1.857,0,0,0-3.171,1.314V68.533a1.752,1.752,0,0,0,.027.317l7.055,40.557H34.375L27.24,73.742a1.857,1.857,0,0,0-3.678.364v35.3H16.131V46.238H12.415V68.533H6.841Z" transform="translate(0 1.477)" fill="#003adc"/>
    <path id="Path_71" data-name="Path 71" d="M20.608,56.374h3.716V39.653h1.858V35.937H18.75v3.716h1.858Z" transform="translate(2.954 6.204)" fill="#003adc"/>
    <path id="Path_72" data-name="Path 72" d="M101.5,83.244a9.289,9.289,0,1,0-12.642,0,9.3,9.3,0,0,0-2.968,2.578,9.322,9.322,0,0,0-2.969-2.578,9.289,9.289,0,1,0-12.642,0,9.3,9.3,0,0,0-2.968,2.578,9.322,9.322,0,0,0-2.969-2.578,9.289,9.289,0,1,0-12.642,0,9.257,9.257,0,0,0-4.826,8.1v9.289a1.856,1.856,0,0,0,1.859,1.859h55.737a1.856,1.856,0,0,0,1.857-1.859V91.34A9.257,9.257,0,0,0,101.5,83.244ZM95.181,70.9a5.574,5.574,0,1,1-5.573,5.574A5.582,5.582,0,0,1,95.181,70.9ZM76.6,70.9a5.574,5.574,0,1,1-5.573,5.574A5.582,5.582,0,0,1,76.6,70.9Zm-18.579,0a5.574,5.574,0,1,1-5.573,5.574A5.582,5.582,0,0,1,58.022,70.9ZM50.591,91.34a5.581,5.581,0,0,1,5.574-5.574h3.716a5.581,5.581,0,0,1,5.573,5.574v7.432H50.591Zm18.579,0a5.581,5.581,0,0,1,5.574-5.574H78.46a5.581,5.581,0,0,1,5.573,5.574v7.432H69.17Zm33.442,7.432H87.749V91.34a5.581,5.581,0,0,1,5.574-5.574h3.716a5.581,5.581,0,0,1,5.573,5.574Z" transform="translate(8.271 12.112)" fill="#003adc"/>
    <path id="Path_73" data-name="Path 73" d="M99.658,40.54H95.942V51.687H92.227V31.25H88.511V51.687H84.795V44.255H81.079v7.432H77.363V36.824H73.647V51.687H69.932V44.255H66.216v7.432H62.5V55.4h40.874V51.687H99.658Z" transform="translate(11.226 5.317)" fill="#003adc"/>
    <path id="Path_74" data-name="Path 74" d="M37.8,29.136H65.665a9.3,9.3,0,0,0,9.289-9.29V12.414a9.3,9.3,0,0,0-9.289-9.289H50.8a9.3,9.3,0,0,0-9.29,9.289v8.521l-5.03,5.03A1.857,1.857,0,0,0,37.8,29.136Zm6.887-6.118a1.851,1.851,0,0,0,.545-1.314v-9.29A5.58,5.58,0,0,1,50.8,6.841H65.665a5.58,5.58,0,0,1,5.573,5.573v7.432a5.58,5.58,0,0,1-5.573,5.574H42.281Z" transform="translate(6.203)" fill="#003adc"/>
    <rect id="Rectangle_22" data-name="Rectangle 22" width="18.579" height="3.716" transform="translate(55.146 10.557)" fill="#003adc"/>
    <rect id="Rectangle_23" data-name="Rectangle 23" width="18.579" height="3.716" transform="translate(55.146 17.988)" fill="#003adc"/>
    <rect id="Rectangle_24" data-name="Rectangle 24" width="26.011" height="3.716" transform="translate(88.589 10.557)" fill="#003adc"/>
    <rect id="Rectangle_25" data-name="Rectangle 25" width="26.011" height="3.716" transform="translate(88.589 17.988)" fill="#003adc"/>
    <rect id="Rectangle_26" data-name="Rectangle 26" width="9.29" height="3.716" transform="translate(105.31 25.42)" fill="#003adc"/>
    <rect id="Rectangle_27" data-name="Rectangle 27" width="26.011" height="3.716" transform="translate(88.589 64.436)" fill="#003adc"/>
    <rect id="Rectangle_28" data-name="Rectangle 28" width="3.716" height="3.716" transform="translate(96.02 71.868)" fill="#003adc"/>
    <rect id="Rectangle_29" data-name="Rectangle 29" width="3.716" height="3.716" transform="translate(103.452 71.868)" fill="#003adc"/>
    <rect id="Rectangle_30" data-name="Rectangle 30" width="3.716" height="3.716" transform="translate(110.884 71.868)" fill="#003adc"/>
  </g>
</svg>
