<svg xmlns="http://www.w3.org/2000/svg" width="75.512" height="124" viewBox="0 0 75.512 124">
  <g id="icon_no_fear" transform="translate(-20.606 -1.515)">
    <path id="Path_65" data-name="Path 65" d="M22.353,114.454a1.739,1.739,0,0,0-1.747,1.747v7.568a1.739,1.739,0,0,0,1.747,1.746H85.226a1.739,1.739,0,0,0,1.746-1.746V116.2a1.739,1.739,0,0,0-1.746-1.747H79.792V78.748h5.434A1.739,1.739,0,0,0,86.972,77V69.433a1.739,1.739,0,0,0-1.746-1.746H79.4V53.716l13-8.151a6.919,6.919,0,0,0,3.3-8.539L88.719,15.1c-.971-3.687-4.075-5.045-6.792-4.269a5.444,5.444,0,0,0-3.881,6.985L82.7,37.026,71.448,43.042H63.685l-1.164-3.881A21.653,21.653,0,0,0,69.9,23.249h0V12.77A8.243,8.243,0,0,0,61.552,4.62h-3.3a11.445,11.445,0,0,0-8.151-3.1A13.761,13.761,0,0,0,36.713,11.606a1.819,1.819,0,0,0,1.746,2.328h.777v9.12h0A20.856,20.856,0,0,0,45.445,37.8l-1.552,5.046H40.205A12.017,12.017,0,0,0,28.174,54.492h0v13H22.353a1.739,1.739,0,0,0-1.747,1.747v7.568a1.739,1.739,0,0,0,1.747,1.747h5.433v35.9Zm60.932,7.568H24.1v-3.881H83.285Zm-22.9-77.233c-1.94,1.94-11.643,1.747-13.39,0l1.359-4.463a12.76,12.76,0,0,0,6.016,1.747,13.509,13.509,0,0,0,4.851-.971ZM49.908,5.2a8.5,8.5,0,0,1,6.016,2.328c.97,1.164,2.134.583,5.628.583a4.557,4.557,0,0,1,4.657,4.463V15.1c-3.881-5.24-9.315-5.821-15.136-2.134V11.8a1.3,1.3,0,0,0-.776-1.358,1.466,1.466,0,0,0-1.552-.195,14.606,14.606,0,0,0-5.822,3.494V12.577a1.761,1.761,0,0,0-.581-1.359,1.678,1.678,0,0,0-1.164-.583A9.551,9.551,0,0,1,49.908,5.2Zm-7.18,17.852c.193-4.269,1.746-6.985,4.657-8.732v2.135a1.537,1.537,0,0,0,.971,1.552,1.785,1.785,0,0,0,1.94-.195c7.568-6.4,12.613-4.074,15.719,5.434-.195,6.985-5.24,15.136-11.643,15.136-6.6,0-11.643-8.539-11.643-15.331ZM40.012,46.729h3.881c2.716,4.463,17.076,4.27,19.793,0h8.345c.388,0,.581,0,.776-.193l13-6.792a1.84,1.84,0,0,0,.971-2.135l-5.24-20.57A2.158,2.158,0,0,1,82.7,14.323a2,2,0,0,1,2.328,1.747l6.987,22.121a3.217,3.217,0,0,1-1.552,4.075L76.493,51a2.394,2.394,0,0,0-.776,1.552V67.493H67.955V64.2a1.762,1.762,0,0,0-.583-1.359l-1.358-1.359c.97-2.328,0-4.851-1.747-6.6-2.328-2.328-6.21-2.716-8.151-.776-2.134,2.134-1.746,5.628.776,8.149A6.59,6.59,0,0,0,63.492,64l.776.776v2.716H40.788V58.956a6.046,6.046,0,0,0-6.016-6.016H32.055A7.953,7.953,0,0,1,40.012,46.729Zm19.4,13.2c-.97-.97-1.164-2.522-.776-2.911.583-.581,2.135,0,2.911.777s1.358,2.328.776,2.91C61.552,61.284,60.193,60.7,59.417,59.925Zm-27.75-3.3h2.911a2.407,2.407,0,0,1,2.523,2.33v8.538H31.667ZM24.1,71.18H83.285v3.881H24.1Zm7.375,7.568H76.1v35.9H31.473Z" transform="translate(0 0)" fill="#003adc"/>
    <path id="Path_66" data-name="Path 66" d="M63.005,75.231a1.655,1.655,0,0,0-1.521-1.141l-7.416-1.141-3.233-6.656a1.593,1.593,0,0,0-1.521-1.142,1.507,1.507,0,0,0-1.521.951l-3.233,6.656L37.142,73.9A1.8,1.8,0,0,0,36,76.941l5.325,5.135L40,89.493a1.534,1.534,0,0,0,.761,1.712,2.253,2.253,0,0,0,1.9.191l6.656-3.424L55.969,91.4a1.753,1.753,0,0,0,2.473-2.283L57.3,82.267l5.324-5.135A2.34,2.34,0,0,0,63.005,75.231Zm-8.938,5.135a2.159,2.159,0,0,0-.571,1.521l.762,4.754-4.185-2.282a2.628,2.628,0,0,0-1.711,0l-4.185,2.282.761-4.754a1.273,1.273,0,0,0-.57-1.521l-3.424-3.424,4.754-.761a1.431,1.431,0,0,0,1.332-.95l2.092-4.374,2.091,4.374a1.431,1.431,0,0,0,1.332.95l4.754.761Z" transform="translate(4.422 18.717)" fill="#003adc"/>
    <path id="Path_67" data-name="Path 67" d="M43.249,24.084a1.8,1.8,0,0,0,.38,2.473,7.608,7.608,0,0,0,9.128,0A1.769,1.769,0,1,0,50.666,23.7a4.639,4.639,0,0,1-4.944,0A2.02,2.02,0,0,0,43.249,24.084Z" transform="translate(6.359 6.159)" fill="#003adc"/>
    <path id="Path_68" data-name="Path 68" d="M50.348,20.544H53.01a1.711,1.711,0,1,0,0-3.423H50.348a1.711,1.711,0,1,0,0,3.423Z" transform="translate(7.934 3.981)" fill="#003adc"/>
    <path id="Path_69" data-name="Path 69" d="M44.98,20.544a1.711,1.711,0,1,0,0-3.423H42.318a1.711,1.711,0,1,0,0,3.423Z" transform="translate(5.661 3.981)" fill="#003adc"/>
  </g>
</svg>
